<?xml version="1.0" encoding="iso-8859-1"?>
<!-- Generator: Adobe Illustrator 18.1.1, SVG Export Plug-In . SVG Version: 6.00 Build 0)  -->
<svg version="1.1" id="Capa_1" xmlns="http://www.w3.org/2000/svg" xmlns:xlink="http://www.w3.org/1999/xlink" x="0px" y="0px"
	 viewBox="0 0 76 76" style="enable-background:new 0 0 76 76;" xml:space="preserve">
<g id="_x37_7_Essential_Icons_41_">
	<path fill="white" id="No_Volume" d="M75.4,45.582c0.8,0.8,0.8,2,0,2.8c-0.4,0.4-0.9,0.6-1.4,0.6s-1-0.2-1.4-0.6l-7.6-7.6l-7.6,7.6
		c-0.4,0.4-0.9,0.6-1.4,0.6s-1-0.2-1.4-0.6c-0.8-0.8-0.8-2,0-2.8l7.6-7.6l-7.6-7.6c-0.8-0.8-0.8-2,0-2.8s2-0.8,2.8,0l7.6,7.6
		l7.6-7.6c0.8-0.8,2-0.8,2.8,0s0.8,2,0,2.8l-7.6,7.6L75.4,45.582z M48,3.982v68c0,0.8-0.5,1.5-1.2,1.8c-0.3,0.2-0.5,0.2-0.8,0.2
		c-0.5,0-1-0.2-1.4-0.6l-18.4-18.4H2c-1.1,0-2-0.9-2-2v-30c0-1.1,0.9-2,2-2h24.2l18.4-18.4c0.6-0.6,1.4-0.7,2.2-0.4
		C47.5,2.482,48,3.182,48,3.982z M25,24.982H4v26h21V24.982z M44,8.782l-15,15v28.3l15,15V8.782z"/>
</g>
<g>
</g>
<g>
</g>
<g>
</g>
<g>
</g>
<g>
</g>
<g>
</g>
<g>
</g>
<g>
</g>
<g>
</g>
<g>
</g>
<g>
</g>
<g>
</g>
<g>
</g>
<g>
</g>
<g>
</g>
</svg>
