<?xml version="1.0" encoding="iso-8859-1"?>
<!-- Generator: Adobe Illustrator 18.1.1, SVG Export Plug-In . SVG Version: 6.00 Build 0)  -->
<svg version="1.1" id="Capa_1" xmlns="http://www.w3.org/2000/svg" xmlns:xlink="http://www.w3.org/1999/xlink" x="0px" y="0px"
	 viewBox="0 0 80 80" style="enable-background:new 0 0 80 80;" xml:space="preserve">
<g id="_x37_7_Essential_Icons_75_">
	<path fill="white" id="Volume" d="M80,39.982c0,8.6-2.5,16.9-7.3,24.1c-0.4,0.6-1,0.9-1.7,0.9c-0.4,0-0.8-0.1-1.1-0.3c-0.9-0.6-1.2-1.8-0.6-2.8
		c4.4-6.5,6.7-14.1,6.7-21.9s-2.3-15.3-6.6-21.9c-0.6-0.9-0.4-2.2,0.6-2.8c0.9-0.6,2.2-0.3,2.8,0.6C77.5,23.082,80,31.382,80,39.982
		z M69.8,39.982c0,5.8-1.5,11.6-4.4,16.8c-0.4,0.6-1,1-1.7,1c-0.3,0-0.7-0.1-1-0.3c-1-0.5-1.3-1.8-0.8-2.7c2.6-4.5,3.9-9.6,3.9-14.8
		s-1.3-10.3-3.9-14.8c-0.5-1-0.2-2.2,0.8-2.7s2.2-0.2,2.7,0.7C68.3,28.382,69.8,34.182,69.8,39.982z M59.6,39.982
		c0,3.2-0.6,6.2-1.8,9.1c-0.3,0.8-1.1,1.2-1.8,1.2c-0.2,0-0.5,0-0.8-0.1c-1-0.4-1.5-1.6-1.1-2.6c1-2.4,1.5-4.9,1.5-7.6
		s-0.5-5.2-1.5-7.6c-0.4-1,0.1-2.2,1.1-2.6c1-0.4,2.2,0.1,2.6,1.1C59,33.782,59.6,36.882,59.6,39.982z M48,5.982v68
		c0,0.8-0.5,1.5-1.2,1.8c-0.3,0.1-0.5,0.2-0.8,0.2c-0.5,0-1-0.2-1.4-0.6l-18.4-18.4H2c-1.1,0-2-0.9-2-2v-30c0-1.1,0.9-2,2-2h24.2
		l18.4-18.4c0.6-0.6,1.4-0.7,2.2-0.4C47.5,4.482,48,5.182,48,5.982z M25,26.982H4v26h21V26.982z M44,10.782l-15,15v28.3l15,15
		V10.782z"/>
</g>
<g>
</g>
<g>
</g>
<g>
</g>
<g>
</g>
<g>
</g>
<g>
</g>
<g>
</g>
<g>
</g>
<g>
</g>
<g>
</g>
<g>
</g>
<g>
</g>
<g>
</g>
<g>
</g>
<g>
</g>
</svg>
